<?xml version="1.0" encoding="UTF-8" standalone="no"?>
<svg
   width="300pt"
   height="300pt"
   viewBox="0 0 300 300"
   version="1.1"
   id="svg13"
   xmlns="http://www.w3.org/2000/svg"
   xmlns:svg="http://www.w3.org/2000/svg">
  <defs
     id="defs5">
    <clipPath
       id="clip-0">
      <path
         clip-rule="nonzero"
         d="M 0 0 L 300.960938 0 L 300.960938 301 L 0 301 Z M 0 0 "
         id="path2" />
    </clipPath>
  </defs>
  <g
     clip-path="url(#clip-0)"
     id="g9">
    <path
       fill-rule="nonzero"
       fill="#f6b17a"
       fill-opacity="1"
       d="M 15.386719,0.375 H 285.61328 c 0.98438,0 1.96094,0.097656 2.92578,0.289063 0.96875,0.191406 1.90625,0.476562 2.81641,0.855468 0.91406,0.375 1.77734,0.839844 2.59765,1.386719 0.82032,0.546875 1.57813,1.167969 2.27344,1.867188 0.69922,0.695312 1.32031,1.453125 1.86719,2.273437 0.54687,0.820313 1.01172,1.683594 1.38672,2.597656 0.3789,0.910157 0.66406,1.847657 0.85547,2.816407 0.1914,0.964843 0.28906,1.941406 0.28906,2.925781 V 285.61328 c 0,0.98438 -0.0977,1.96094 -0.28906,2.92578 -0.19141,0.96875 -0.47657,1.90625 -0.85547,2.81641 -0.375,0.91406 -0.83985,1.77734 -1.38672,2.59765 -0.54688,0.82032 -1.16797,1.57813 -1.86719,2.27344 -0.69531,0.69922 -1.45312,1.32031 -2.27344,1.86719 -0.82031,0.54687 -1.68359,1.01172 -2.59765,1.38672 -0.91016,0.3789 -1.84766,0.66406 -2.81641,0.85547 -0.96484,0.1914 -1.9414,0.28906 -2.92578,0.28906 H 15.386719 c -0.984375,0 -1.960938,-0.0977 -2.925781,-0.28906 -0.96875,-0.19141 -1.90625,-0.47657 -2.816407,-0.85547 -0.914062,-0.375 -1.777343,-0.83985 -2.597656,-1.38672 C 6.226563,297.54687 5.46875,296.92578 4.773438,296.22656 4.074219,295.53125 3.453125,294.77344 2.90625,293.95312 2.359375,293.13281 1.894531,292.26953 1.519531,291.35547 1.140625,290.44531 0.855469,289.50781 0.664063,288.53906 0.472656,287.57422 0.375,286.59766 0.375,285.61328 V 15.386719 c 0,-0.984375 0.097656,-1.960938 0.289063,-2.925781 0.191406,-0.96875 0.476562,-1.90625 0.855468,-2.816407 C 1.894531,8.730469 2.359375,7.867188 2.90625,7.046875 3.453125,6.226563 4.074219,5.46875 4.773438,4.773438 5.46875,4.074219 6.226563,3.453125 7.046875,2.90625 7.867188,2.359375 8.730469,1.894531 9.644531,1.519531 10.554688,1.140625 11.492188,0.855469 12.460938,0.664063 13.425781,0.472656 14.402344,0.375 15.386719,0.375 Z m 0,0"
       id="path7" />
  </g>
  <path
     fill-rule="nonzero"
     fill="rgb(100%, 100%, 100%)"
     fill-opacity="1"
     d="M 149.660156 134.886719 L 149.660156 226.796875 C 149.660156 233.804688 148.664063 240.503906 146.679688 246.890625 C 144.65625 253.394531 141.453125 259.160156 137.074219 264.191406 C 132.667969 269.253906 127.015625 273.246094 120.113281 276.175781 C 113.269531 279.078125 105.070313 280.53125 95.519531 280.53125 C 87.46875 280.53125 80.003906 279.359375 73.121094 277.015625 C 66.269531 274.6875 59.847656 271.371094 53.851563 267.066406 L 51.40625 265.3125 L 64.390625 245.089844 L 67.066406 246.851563 C 72.324219 250.316406 77.140625 252.644531 81.511719 253.839844 C 85.933594 255.046875 90.296875 255.652344 94.609375 255.652344 C 102.457031 255.652344 108.617188 253.195313 113.089844 248.277344 C 117.640625 243.273438 119.917969 235.945313 119.917969 226.289063 L 119.917969 152.925781 L 123.082031 152.925781 L 123.082031 156.089844 L 77.863281 156.089844 L 77.863281 131.71875 L 149.660156 131.71875 Z M 143.324219 134.886719 L 146.492188 134.886719 L 146.492188 138.054688 L 81.03125 138.054688 L 81.03125 134.886719 L 84.195313 134.886719 L 84.195313 152.925781 L 81.03125 152.925781 L 81.03125 149.757813 L 126.25 149.757813 L 126.25 226.289063 C 126.25 237.578125 123.425781 246.328125 117.773438 252.539063 C 112.046875 258.835938 104.324219 261.984375 94.609375 261.984375 C 89.730469 261.984375 84.808594 261.304688 79.839844 259.949219 C 74.820313 258.574219 69.402344 255.972656 63.582031 252.140625 L 65.324219 249.496094 L 67.988281 251.207031 L 58.359375 266.203125 L 55.695313 264.492188 L 57.542969 261.921875 C 63.03125 265.859375 68.902344 268.890625 75.160156 271.019531 C 81.382813 273.136719 88.167969 274.195313 95.519531 274.195313 C 104.210938 274.195313 111.585938 272.910156 117.640625 270.34375 C 123.644531 267.796875 128.53125 264.359375 132.296875 260.03125 C 136.09375 255.671875 138.871094 250.664063 140.628906 245.007813 C 142.425781 239.234375 143.324219 233.164063 143.324219 226.796875 Z M 146.492188 134.886719 L 146.492188 226.796875 C 146.492188 233.484375 145.546875 239.871094 143.65625 245.949219 C 141.761719 252.03125 138.773438 257.417969 134.6875 262.113281 C 130.597656 266.808594 125.328125 270.523438 118.878906 273.257813 C 112.425781 275.996094 104.640625 277.363281 95.519531 277.363281 C 87.820313 277.363281 80.691406 276.25 74.140625 274.019531 C 67.585938 271.789063 61.4375 268.613281 55.695313 264.492188 L 65.324219 249.496094 C 70.863281 253.144531 75.980469 255.609375 80.675781 256.894531 C 85.371094 258.175781 90.015625 258.820313 94.609375 258.820313 C 103.390625 258.820313 110.332031 256.015625 115.433594 250.40625 C 120.535156 244.800781 123.082031 236.761719 123.082031 226.289063 L 123.082031 152.925781 L 81.03125 152.925781 L 81.03125 134.886719 Z M 237.691406 128.882813 C 247.535156 128.882813 255.898438 130.183594 262.777344 132.785156 C 269.621094 135.375 275.980469 139.074219 281.855469 143.886719 L 284.335938 145.921875 L 267.976563 165.390625 L 265.550781 163.355469 C 261.65625 160.089844 257.492188 157.675781 253.058594 156.113281 C 248.601563 154.546875 243.851563 153.761719 238.808594 153.761719 C 232.433594 153.761719 226.554688 155.367188 221.179688 158.582031 C 215.871094 161.753906 211.582031 166.988281 208.304688 174.285156 C 204.945313 181.777344 203.265625 191.882813 203.265625 204.605469 C 203.265625 217.074219 204.867188 227.066406 208.074219 234.570313 C 211.1875 241.855469 215.394531 247.109375 220.695313 250.339844 C 226.066406 253.609375 232.101563 255.246094 238.808594 255.246094 C 245.808594 255.246094 251.550781 254.125 256.035156 251.882813 C 260.753906 249.523438 264.914063 246.863281 268.515625 243.90625 L 271.019531 241.851563 L 286.121094 261.132813 L 284.082031 263.117188 C 279.15625 267.898438 272.949219 272 265.457031 275.429688 C 257.878906 278.898438 248.726563 280.632813 237.996094 280.632813 C 225.597656 280.632813 214.4375 277.695313 204.515625 271.828125 C 194.558594 265.941406 186.722656 257.316406 181.003906 245.953125 C 175.339844 234.695313 172.507813 220.914063 172.507813 204.605469 C 172.507813 188.414063 175.433594 174.703125 181.277344 163.472656 C 187.164063 152.160156 195.058594 143.566406 204.964844 137.6875 C 214.855469 131.816406 225.765625 128.882813 237.691406 128.882813 Z M 237.691406 135.214844 C 226.921875 135.214844 217.089844 137.855469 208.199219 143.132813 C 199.328125 148.398438 192.226563 156.152344 186.894531 166.394531 C 181.527344 176.710938 178.84375 189.449219 178.84375 204.605469 C 178.84375 219.910156 181.449219 232.746094 186.664063 243.105469 C 191.820313 253.363281 198.847656 261.121094 207.738281 266.378906 C 216.664063 271.65625 226.75 274.296875 237.996094 274.296875 C 247.804688 274.296875 256.082031 272.753906 262.824219 269.667969 C 269.652344 266.542969 275.269531 262.847656 279.667969 258.574219 L 281.875 260.84375 L 279.382813 262.796875 L 268.03125 248.308594 L 270.523438 246.355469 L 272.535156 248.800781 C 268.566406 252.058594 264.011719 254.976563 258.867188 257.546875 C 253.492188 260.234375 246.804688 261.578125 238.808594 261.578125 C 230.917969 261.578125 223.78125 259.636719 217.398438 255.746094 C 210.945313 251.816406 205.894531 245.585938 202.253906 237.058594 C 198.703125 228.757813 196.929688 217.941406 196.929688 204.605469 C 196.929688 190.980469 198.796875 180.007813 202.527344 171.691406 C 206.347656 163.179688 211.480469 157 217.929688 153.144531 C 224.304688 149.332031 231.265625 147.425781 238.808594 147.425781 C 244.574219 147.425781 250.023438 148.332031 255.160156 150.140625 C 260.320313 151.957031 265.140625 154.746094 269.621094 158.503906 L 267.585938 160.929688 L 265.160156 158.894531 L 277.421875 144.300781 L 279.847656 146.335938 L 277.839844 148.789063 C 272.5 144.414063 266.734375 141.054688 260.539063 138.710938 C 254.378906 136.382813 246.765625 135.214844 237.691406 135.214844 Z M 237.691406 132.050781 C 247.148438 132.050781 255.140625 133.28125 261.65625 135.75 C 268.175781 138.214844 274.242188 141.742188 279.847656 146.335938 L 267.585938 160.929688 C 263.398438 157.417969 258.90625 154.816406 254.109375 153.128906 C 249.3125 151.4375 244.210938 150.59375 238.808594 150.59375 C 231.847656 150.59375 225.429688 152.351563 219.554688 155.863281 C 213.675781 159.375 208.964844 165.085938 205.417969 172.988281 C 201.871094 180.894531 200.097656 191.429688 200.097656 204.605469 C 200.097656 217.507813 201.785156 227.910156 205.164063 235.816406 C 208.542969 243.71875 213.167969 249.460938 219.046875 253.042969 C 224.925781 256.625 231.511719 258.414063 238.808594 258.414063 C 246.304688 258.414063 252.519531 257.179688 257.453125 254.714844 C 262.382813 252.25 266.742188 249.460938 270.523438 246.355469 L 281.875 260.84375 C 277.210938 265.371094 271.300781 269.273438 264.140625 272.550781 C 256.980469 275.824219 248.265625 277.464844 237.996094 277.464844 C 226.175781 277.464844 215.550781 274.675781 206.125 269.105469 C 196.703125 263.53125 189.273438 255.339844 183.832031 244.53125 C 178.394531 233.722656 175.675781 220.414063 175.675781 204.605469 C 175.675781 188.933594 178.480469 175.707031 184.085938 164.933594 C 189.695313 154.15625 197.191406 145.984375 206.582031 140.410156 C 215.972656 134.835938 226.34375 132.050781 237.691406 132.050781 Z M 237.691406 132.050781 "
     id="path11" />
</svg>
