<svg
	id="visual"
	viewBox="0 0 1000 250"
	width="100%"
	height="5rem"
	preserveAspectRatio="none"
	xmlns="http://www.w3.org/2000/svg"
	xmlns:xlink="http://www.w3.org/1999/xlink"
	version="1.1">
	<path
		d="M0 130L23.8 120.7C47.7 111.3 95.3 92.7 143 98.3C190.7 104 238.3 134 286 140.2C333.7 146.3 381.3 128.7 428.8 114.5C476.3 100.3 523.7 89.7 571.2 82.3C618.7 75 666.3 71 714 80.5C761.7 90 809.3 113 857 127.7C904.7 142.3 952.3 148.7 976.2 151.8L1000 155L1000 251L976.2 251C952.3 251 904.7 251 857 251C809.3 251 761.7 251 714 251C666.3 251 618.7 251 571.2 251C523.7 251 476.3 251 428.8 251C381.3 251 333.7 251 286 251C238.3 251 190.7 251 143 251C95.3 251 47.7 251 23.8 251L0 251Z"
		stroke-linecap="round"
		stroke-linejoin="miter"
	>
	</path>
</svg>