<svg id="visual" viewBox="0 0 900 600" width="900" height="600" xmlns="http://www.w3.org/2000/svg" xmlns:xlink="http://www.w3.org/1999/xlink" version="1.1"><path d="M0 522L16.7 502.5C33.3 483 66.7 444 100 421.3C133.3 398.7 166.7 392.3 200 391.3C233.3 390.3 266.7 394.7 300 412.2C333.3 429.7 366.7 460.3 400 477C433.3 493.7 466.7 496.3 500 495.2C533.3 494 566.7 489 600 480.5C633.3 472 666.7 460 700 449.7C733.3 439.3 766.7 430.7 800 427C833.3 423.3 866.7 424.7 883.3 425.3L900 426L900 601L883.3 601C866.7 601 833.3 601 800 601C766.7 601 733.3 601 700 601C666.7 601 633.3 601 600 601C566.7 601 533.3 601 500 601C466.7 601 433.3 601 400 601C366.7 601 333.3 601 300 601C266.7 601 233.3 601 200 601C166.7 601 133.3 601 100 601C66.7 601 33.3 601 16.7 601L0 601Z" fill="#FF0066" stroke-linecap="round" stroke-linejoin="miter"></path></svg>